<svg width="36" height="36" viewBox="0 0 36 36" fill="none" xmlns="http://www.w3.org/2000/svg">
<path fill-rule="evenodd" clip-rule="evenodd" d="M29.1395 0.585785C29.9205 -0.195262 31.1866 -0.195262 31.9676 0.585785L35.4159 4.03305C36.1968 4.8141 36.1969 6.08113 35.4159 6.86215L24.2762 17.9998L35.4149 29.1385C36.1959 29.9196 36.1959 31.1856 35.4149 31.9666L31.9676 35.4149C31.1866 36.1959 29.9196 36.1959 29.1385 35.4149L17.9998 24.2762L6.86215 35.4149C6.08113 36.1956 4.81499 36.1957 4.03403 35.4149L0.585787 31.9666C-0.194905 31.1857 -0.194877 29.9195 0.585787 29.1385L11.7235 17.9998L0.585787 6.86215C-0.195262 6.08111 -0.195262 4.8141 0.585787 4.03305L4.03403 0.585785C4.81508 -0.195262 6.0811 -0.195262 6.86215 0.585785L17.9998 11.7235L29.1395 0.585785Z" fill="#EDEDED" fill-opacity="0.1"/>
</svg>
